<!-- icon666.com - MILLIONS OF FREE VECTOR ICONS --><svg version="1.1" id="Layer_1" xmlns="http://www.w3.org/2000/svg" xmlns:xlink="http://www.w3.org/1999/xlink" x="0px" y="0px" viewBox="0 0 512 512" style="enable-background:new 0 0 512 512;" xml:space="preserve"><g><g><path d="M512,70.844L441.157,0L293.855,147.302c-13.542-8.991-29.424-13.825-46.05-13.825c-22.301,0-43.266,8.685-59.035,24.453 l-46.346,46.344c-10.85,10.851-28.507,10.85-39.357,0L91.26,192.469L42.318,241.41c-56.424,56.424-56.424,148.234,0,204.658 l23.614,23.614c28.216,28.215,65.266,42.321,102.33,42.318c37.054-0.003,74.12-14.11,102.328-42.318l48.941-48.941l-11.806-11.808 c-5.257-5.256-8.151-12.245-8.151-19.679s2.895-14.423,8.151-19.678l46.345-46.345c28.51-28.51,32.048-72.678,10.62-105.076 L512,70.844z M441.157,47.229l23.615,23.614l-47.229,47.229l-23.615-23.614L441.157,47.229z M330.456,299.617l-46.346,46.344 c-11.565,11.564-17.932,26.939-17.932,43.293c0,10.628,2.689,20.841,7.747,29.865l-26.948,26.948 c-39.702,39.701-102.174,43.079-145.761,10.149l70.629-45.217l21.745-21.746l-70.844-70.842L101,340.157l-45.217,70.629 c-32.93-43.587-29.553-106.059,10.149-145.761l26.964-26.963c9.244,5.156,19.543,7.733,29.849,7.732 c15.676-0.001,31.359-5.97,43.293-17.903l46.345-46.346c9.461-9.461,22.041-14.672,35.421-14.672 c7.603,0,14.945,1.686,21.605,4.875l-75.704,75.704l70.844,70.844l75.682-75.683C349.099,261.229,345.848,284.225,330.456,299.617 z M85.155,426.845l38.562-60.234l21.672,21.672L85.155,426.845z M264.549,271.067l-23.615-23.614l129.381-129.381l23.615,23.615 L264.549,271.067z"></path></g></g><g><g><rect x="176.902" y="268.32" transform="matrix(0.7071 -0.7071 0.7071 0.7071 -168.4481 230.157)" width="33.395" height="100.186"></rect></g></g></svg>